# xmcd
#
# Track frame offsets:
#	150
#	8318
#	19607
#	28037
#	33214
#	44959
#	51925
#	64156
#	78559
#	83230
#	89822
#	99204
#	107574
#	114353
#	120178
#	139885
#	149194
#	158650
#	171350
#	179797
#	189080
#	194442
#	203737
#	212079
#	219099
#	232501
#	245471
#	265538
#
# Disc length: 3737 seconds
#
# Revision: 0
# Processed by: cddbd v1.5.2PL0 Copyright (c) Steve Scherf et al.
# Submitted via: EasyCDDAExtractor 16.0.6.1
#
DISCID=790e971c
DTITLE=Χορωδία - Τραγούδια για το 1821 1-Ίτε παίδες Ελλήνων
DYEAR=1996
DGENRE=Ελλ. πατριωτική
TTITLE0=Ω παίδες Ελλήνων, ίτε [Κωνστ. Νικολόπουλος]
TTITLE1=Το τραγούδι του νέου Έλληνα [Κωνστ. Νικολόπουλος]
TTITLE2=Σπαθί, σπαθί ω Έλληνες [Κωνστ. Νικολόπουλος]
TTITLE3=Η κραυγή των Ελλήνων [Κωνστ. Νικολόπουλος]
TTITLE4=Ωδή εις τον λόρδο Βύρωνα [Αγγελική Πάλλη]
TTITLE5=Το ξεκίνημα των Ελλήνων [Castil Blaze]
TTITLE6=Στην Ελλάδα προσφέρουμε τις αστραφτερές λόγχες μας[H.Bishop-T.Moore]
TTITLE7=Η πατρίς προς τα τέκνα της [Π. Ανδρόνικος]
TTITLE8=Να ο καιρός μας ο λαμπρός [Αγνώστου]
TTITLE9=Φίλοι μου συμπατριώται [Αδαμάντιος Κοραής]
TTITLE10=Δεύτε παίδες των Ελλήνων [Αγνώστου]
TTITLE11=Τι καρτερείτε φίλοι [Στέφανος Κανέλλος]
TTITLE12=Ω γενναίοι Έλληνες [Γεώργιος Κλεάνθης Σάμιος]
TTITLE13=Ω λιγυρόν και κοπτερόν σπαθί μου [Κωνστ. Κοκκινάκης]
TTITLE14=Συναπταί και τροπάρια [βυζαντινοί ύμνοι]
TTITLE15=Διατί πλέον δεν ρίπτεις [Αγώστου]
TTITLE16=Όθεν είσθε των Ελλήνων [Αντ. Μαρτελάος]
TTITLE17=Έφτασε η λαμπρά στιγμή [Αγνώστου]
TTITLE18=Όλα τα έθνη πολεμούν [Ρήγας Φερραίος]
TTITLE19=Η ελληνική Μασσαλιώτις [Ρήγας Φερραίος]
TTITLE20=Ο καιρός αδελφοί [Ρήγας Φεραίος]
TTITLE21=Ο Θούριος [ερμ. 1, εθνεγερ. άσμα Ρήγας Φερραίος]
TTITLE22=Ο Θούριος [ερμ. 2, εθνεγερ. άσμα Ρήγας Φερραίος]
TTITLE23=Ο Θούριος [ερμ. 3, εθνεγερ. άσμα Ρήγας Φερραίος]
TTITLE24=Δεύτε Έλληνες γενναίοι [Γρ. Πρωτοψάλτης-Ν. Πίκκολος]
TTITLE25=Όταν Ελλάς ο Μέγας Ναπολέων [Αγνώστου]
TTITLE26=Μαύρο πουλάκι πώ 'ρχεσαι [αστικό τρ. Πάργας]
TTITLE27=Της Φροσύνης [αστικό τρ. Ιωαννίνων]
EXTD=
EXTT0=
EXTT1=
EXTT2=
EXTT3=
EXTT4=
EXTT5=
EXTT6=
EXTT7=
EXTT8=
EXTT9=
EXTT10=
EXTT11=
EXTT12=
EXTT13=
EXTT14=
EXTT15=
EXTT16=
EXTT17=
EXTT18=
EXTT19=
EXTT20=
EXTT21=
EXTT22=
EXTT23=
EXTT24=
EXTT25=
EXTT26=
EXTT27=
PLAYORDER=
